<?xml version="1.0" encoding="UTF-8" standalone="no"?>
<svg
   xmlns:dc="http://purl.org/dc/elements/1.1/"
   xmlns:cc="http://creativecommons.org/ns#"
   xmlns:rdf="http://www.w3.org/1999/02/22-rdf-syntax-ns#"
   xmlns:svg="http://www.w3.org/2000/svg"
   xmlns="http://www.w3.org/2000/svg"
   xmlns:sodipodi="http://sodipodi.sourceforge.net/DTD/sodipodi-0.dtd"
   xmlns:inkscape="http://www.inkscape.org/namespaces/inkscape"
   enable-background="new 0 0 55 55"
   height="55px"
   version="1.1"
   viewBox="0 0 55 55"
   width="55px"
   x="0px"
   xml:space="preserve"
   y="0px"
   id="svg2"
   inkscape:version="0.47 r22583"
   sodipodi:docname="chico.svg"><metadata
     id="metadata21"><rdf:RDF><cc:Work
         rdf:about=""><dc:format>image/svg+xml</dc:format><dc:type
           rdf:resource="http://purl.org/dc/dcmitype/StillImage" /><dc:title></dc:title></cc:Work></rdf:RDF></metadata><defs
     id="defs19"><inkscape:perspective
       sodipodi:type="inkscape:persp3d"
       inkscape:vp_x="0 : 27.5 : 1"
       inkscape:vp_y="0 : 1000 : 0"
       inkscape:vp_z="55 : 27.5 : 1"
       inkscape:persp3d-origin="27.5 : 18.333333 : 1"
       id="perspective23" /></defs><sodipodi:namedview
     pagecolor="#ffffff"
     bordercolor="#666666"
     borderopacity="1"
     objecttolerance="10"
     gridtolerance="10"
     guidetolerance="10"
     inkscape:pageopacity="0"
     inkscape:pageshadow="2"
     inkscape:window-width="1200"
     inkscape:window-height="806"
     id="namedview17"
     showgrid="false"
     inkscape:snap-bbox="true"
     inkscape:zoom="6.0682618"
     inkscape:cx="22.858387"
     inkscape:cy="25.110935"
     inkscape:window-x="0"
     inkscape:window-y="31"
     inkscape:window-maximized="1"
     inkscape:current-layer="svg2" /><g
     display="block"
     id="media-playback-start"
     style="fill:#ffffff;display:block"
     transform="matrix(0.79026493,0,0,0.78127629,11.370636,12.029805)">
	<g
   display="inline"
   id="g5"
   style="fill:#ffffff;display:inline">
		<g
   id="g7"
   style="fill:#ffffff">
			<g
   id="g9"
   style="fill:#ffffff">
				<g
   id="g11"
   style="fill:#ffffff">
					<path
   d="M 27.496,5.051 C 15.036,5.07 4.952,15.155 4.93,27.618 4.952,40.08 15.036,50.164 27.496,50.185 39.961,50.164 50.045,40.081 50.064,27.619 50.045,15.155 39.961,5.07 27.496,5.051 z M 21.551,37.977 V 17.667 L 39.512,27.822 21.551,37.977 z"
   id="path13"
   style="fill:#ffffff" />
				</g>
			</g>
			<path
   d="M 27.498,0 C 12.311,0 0,12.313 0,27.5 0,42.688 12.311,55 27.498,55 42.686,55 55,42.688 55,27.5 55,12.313 42.686,0 27.498,0 z M 27.496,52.646 C 13.67,52.646 2.463,41.437 2.461,27.613 2.463,13.787 13.67,2.577 27.496,2.574 41.322,2.577 52.531,13.787 52.535,27.612 52.531,41.437 41.322,52.646 27.496,52.646 z"
   id="path15"
   style="fill:#ffffff" />
		</g>
	</g>
</g></svg>